<svg width="202" height="97" viewBox="0 0 202 97" fill="none" xmlns="http://www.w3.org/2000/svg">
<g filter="url(#filter0_d_21_35)">
<rect x="28.9143" y="24.3065" width="144.171" height="40.6935" rx="10" fill="white"/>
</g>
<path d="M51.2124 45.6672H49.7515C49.7098 45.4276 49.633 45.2154 49.521 45.0305C49.409 44.843 49.2697 44.6841 49.103 44.5539C48.9364 44.4237 48.7463 44.326 48.5327 44.2609C48.3218 44.1932 48.0939 44.1594 47.8491 44.1594C47.4142 44.1594 47.0288 44.2687 46.6929 44.4875C46.3569 44.7036 46.0939 45.0213 45.9038 45.4406C45.7137 45.8573 45.6187 46.3664 45.6187 46.968C45.6187 47.5799 45.7137 48.0956 45.9038 48.5148C46.0965 48.9315 46.3595 49.2466 46.6929 49.4601C47.0288 49.6711 47.4129 49.7766 47.8452 49.7766C48.0848 49.7766 48.3088 49.7453 48.5171 49.6828C48.728 49.6177 48.9168 49.5226 49.0835 49.3976C49.2528 49.2726 49.3947 49.119 49.5093 48.9367C49.6265 48.7544 49.7072 48.5461 49.7515 48.3117L51.2124 48.3195C51.1577 48.6997 51.0392 49.0565 50.8569 49.3898C50.6772 49.7232 50.4416 50.0174 50.1499 50.2726C49.8582 50.5252 49.5171 50.7232 49.1265 50.8664C48.7358 51.007 48.3022 51.0773 47.8257 51.0773C47.1226 51.0773 46.495 50.9146 45.9429 50.5891C45.3908 50.2635 44.9559 49.7935 44.6382 49.1789C44.3205 48.5643 44.1616 47.8273 44.1616 46.968C44.1616 46.106 44.3218 45.369 44.6421 44.757C44.9624 44.1424 45.3986 43.6724 45.9507 43.3469C46.5028 43.0213 47.1278 42.8586 47.8257 42.8586C48.271 42.8586 48.6851 42.9211 49.0679 43.0461C49.4507 43.1711 49.7918 43.3547 50.0913 43.5969C50.3908 43.8364 50.6369 44.1307 50.8296 44.4797C51.0249 44.826 51.1525 45.2219 51.2124 45.6672ZM59.688 46.968C59.688 47.8299 59.5265 48.5682 59.2036 49.1828C58.8833 49.7948 58.4458 50.2635 57.8911 50.5891C57.339 50.9146 56.7127 51.0773 56.0122 51.0773C55.3117 51.0773 54.6841 50.9146 54.1294 50.5891C53.5773 50.2609 53.1398 49.7909 52.8169 49.1789C52.4966 48.5643 52.3364 47.8273 52.3364 46.968C52.3364 46.106 52.4966 45.369 52.8169 44.757C53.1398 44.1424 53.5773 43.6724 54.1294 43.3469C54.6841 43.0213 55.3117 42.8586 56.0122 42.8586C56.7127 42.8586 57.339 43.0213 57.8911 43.3469C58.4458 43.6724 58.8833 44.1424 59.2036 44.757C59.5265 45.369 59.688 46.106 59.688 46.968ZM58.231 46.968C58.231 46.3612 58.1359 45.8495 57.9458 45.4328C57.7583 45.0135 57.4979 44.6971 57.1646 44.4836C56.8312 44.2674 56.4471 44.1594 56.0122 44.1594C55.5773 44.1594 55.1932 44.2674 54.8599 44.4836C54.5265 44.6971 54.2648 45.0135 54.0747 45.4328C53.8872 45.8495 53.7935 46.3612 53.7935 46.968C53.7935 47.5747 53.8872 48.0877 54.0747 48.507C54.2648 48.9237 54.5265 49.2401 54.8599 49.4562C55.1932 49.6698 55.5773 49.7766 56.0122 49.7766C56.4471 49.7766 56.8312 49.6698 57.1646 49.4562C57.4979 49.2401 57.7583 48.9237 57.9458 48.507C58.1359 48.0877 58.231 47.5747 58.231 46.968ZM67.6323 42.968V50.968H66.3433L62.5737 45.5187H62.5073V50.968H61.0581V42.968H62.355L66.1206 48.4211H66.1909V42.968H67.6323ZM68.8599 44.1828V42.968H75.2427V44.1828H72.77V50.968H71.3325V44.1828H68.8599ZM76.5337 50.968H74.9868L77.8032 42.968H79.5923L82.4126 50.968H80.8657L78.729 44.6086H78.6665L76.5337 50.968ZM76.5845 47.8312H80.8032V48.9953H76.5845V47.8312ZM89.938 45.6672H88.4771C88.4354 45.4276 88.3586 45.2154 88.2466 45.0305C88.1346 44.843 87.9953 44.6841 87.8286 44.5539C87.6619 44.4237 87.4718 44.326 87.2583 44.2609C87.0474 44.1932 86.8195 44.1594 86.5747 44.1594C86.1398 44.1594 85.7544 44.2687 85.4185 44.4875C85.0825 44.7036 84.8195 45.0213 84.6294 45.4406C84.4393 45.8573 84.3442 46.3664 84.3442 46.968C84.3442 47.5799 84.4393 48.0956 84.6294 48.5148C84.8221 48.9315 85.0851 49.2466 85.4185 49.4601C85.7544 49.6711 86.1385 49.7766 86.5708 49.7766C86.8104 49.7766 87.0343 49.7453 87.2427 49.6828C87.4536 49.6177 87.6424 49.5226 87.8091 49.3976C87.9784 49.2726 88.1203 49.119 88.2349 48.9367C88.3521 48.7544 88.4328 48.5461 88.4771 48.3117L89.938 48.3195C89.8833 48.6997 89.7648 49.0565 89.5825 49.3898C89.4028 49.7232 89.1672 50.0174 88.8755 50.2726C88.5838 50.5252 88.2427 50.7232 87.8521 50.8664C87.4614 51.007 87.0278 51.0773 86.5513 51.0773C85.8481 51.0773 85.2205 50.9146 84.6685 50.5891C84.1164 50.2635 83.6815 49.7935 83.3638 49.1789C83.0461 48.5643 82.8872 47.8273 82.8872 46.968C82.8872 46.106 83.0474 45.369 83.3677 44.757C83.688 44.1424 84.1242 43.6724 84.6763 43.3469C85.2284 43.0213 85.8534 42.8586 86.5513 42.8586C86.9966 42.8586 87.4106 42.9211 87.7935 43.0461C88.1763 43.1711 88.5174 43.3547 88.8169 43.5969C89.1164 43.8364 89.3625 44.1307 89.5552 44.4797C89.7505 44.826 89.8781 45.2219 89.938 45.6672ZM90.9136 44.1828V42.968H97.2964V44.1828H94.8237V50.968H93.3862V44.1828H90.9136ZM98.5269 50.968V42.968H103.73V44.1828H99.9761V46.3547H103.46V47.5695H99.9761V49.7531H103.761V50.968H98.5269ZM108.783 46.3859V47.55H105.181V46.3859H108.783ZM116.907 42.968V50.968H115.618L111.848 45.5187H111.782V50.968H110.333V42.968H111.629L115.395 48.4211H115.465V42.968H116.907ZM125.634 46.968C125.634 47.8299 125.473 48.5682 125.15 49.1828C124.83 49.7948 124.392 50.2635 123.837 50.5891C123.285 50.9146 122.659 51.0773 121.958 51.0773C121.258 51.0773 120.63 50.9146 120.076 50.5891C119.524 50.2609 119.086 49.7909 118.763 49.1789C118.443 48.5643 118.283 47.8273 118.283 46.968C118.283 46.106 118.443 45.369 118.763 44.757C119.086 44.1424 119.524 43.6724 120.076 43.3469C120.63 43.0213 121.258 42.8586 121.958 42.8586C122.659 42.8586 123.285 43.0213 123.837 43.3469C124.392 43.6724 124.83 44.1424 125.15 44.757C125.473 45.369 125.634 46.106 125.634 46.968ZM124.177 46.968C124.177 46.3612 124.082 45.8495 123.892 45.4328C123.705 45.0135 123.444 44.6971 123.111 44.4836C122.778 44.2674 122.393 44.1594 121.958 44.1594C121.524 44.1594 121.139 44.2674 120.806 44.4836C120.473 44.6971 120.211 45.0135 120.021 45.4328C119.833 45.8495 119.74 46.3612 119.74 46.968C119.74 47.5747 119.833 48.0877 120.021 48.507C120.211 48.9237 120.473 49.2401 120.806 49.4562C121.139 49.6698 121.524 49.7766 121.958 49.7766C122.393 49.7766 122.778 49.6698 123.111 49.4562C123.444 49.2401 123.705 48.9237 123.892 48.507C124.082 48.0877 124.177 47.5747 124.177 46.968ZM131.352 45.1672C131.316 44.826 131.162 44.5604 130.891 44.3703C130.623 44.1802 130.274 44.0851 129.844 44.0851C129.542 44.0851 129.283 44.1307 129.067 44.2219C128.851 44.313 128.685 44.4367 128.571 44.593C128.456 44.7492 128.398 44.9276 128.395 45.1281C128.395 45.2948 128.433 45.4393 128.508 45.5617C128.586 45.6841 128.692 45.7883 128.825 45.8742C128.958 45.9575 129.105 46.0279 129.266 46.0851C129.428 46.1424 129.59 46.1906 129.754 46.2297L130.504 46.4172C130.806 46.4875 131.097 46.5825 131.375 46.7023C131.657 46.8221 131.908 46.9732 132.129 47.1555C132.353 47.3377 132.53 47.5578 132.661 47.8156C132.791 48.0734 132.856 48.3755 132.856 48.7219C132.856 49.1906 132.736 49.6034 132.497 49.9601C132.257 50.3143 131.911 50.5917 131.458 50.7922C131.007 50.9901 130.461 51.0891 129.821 51.0891C129.198 51.0891 128.658 50.9927 128.2 50.8C127.744 50.6073 127.387 50.326 127.129 49.9562C126.874 49.5864 126.736 49.1359 126.715 48.6047H128.141C128.162 48.8833 128.248 49.1151 128.399 49.3C128.55 49.4849 128.747 49.6229 128.989 49.7141C129.234 49.8052 129.507 49.8508 129.809 49.8508C130.124 49.8508 130.4 49.8039 130.637 49.7101C130.877 49.6138 131.064 49.481 131.2 49.3117C131.335 49.1398 131.404 48.9393 131.407 48.7101C131.404 48.5018 131.343 48.3299 131.223 48.1945C131.103 48.0565 130.935 47.9419 130.719 47.8508C130.506 47.757 130.256 47.6737 129.969 47.6008L129.059 47.3664C128.4 47.1971 127.879 46.9406 127.497 46.5969C127.116 46.2505 126.926 45.7909 126.926 45.218C126.926 44.7466 127.054 44.3338 127.309 43.9797C127.567 43.6255 127.917 43.3508 128.36 43.1555C128.803 42.9575 129.304 42.8586 129.864 42.8586C130.431 42.8586 130.929 42.9575 131.356 43.1555C131.786 43.3508 132.123 43.6229 132.368 43.9719C132.612 44.3182 132.739 44.7167 132.747 45.1672H131.352Z" fill="#FF0000"/>
<defs>
<filter id="filter0_d_21_35" x="0.914307" y="0.306458" width="200.171" height="96.6935" filterUnits="userSpaceOnUse" color-interpolation-filters="sRGB">
<feFlood flood-opacity="0" result="BackgroundImageFix"/>
<feColorMatrix in="SourceAlpha" type="matrix" values="0 0 0 0 0 0 0 0 0 0 0 0 0 0 0 0 0 0 127 0" result="hardAlpha"/>
<feOffset dy="4"/>
<feGaussianBlur stdDeviation="14"/>
<feComposite in2="hardAlpha" operator="out"/>
<feColorMatrix type="matrix" values="0 0 0 0 0 0 0 0 0 0 0 0 0 0 0 0 0 0 0.28 0"/>
<feBlend mode="normal" in2="BackgroundImageFix" result="effect1_dropShadow_21_35"/>
<feBlend mode="normal" in="SourceGraphic" in2="effect1_dropShadow_21_35" result="shape"/>
</filter>
</defs>
</svg>
