<svg width="166" height="103" viewBox="0 0 166 103" fill="none" xmlns="http://www.w3.org/2000/svg">
<g filter="url(#filter0_d_21_79)">
<path d="M136.339 84.9401C134.758 87.3361 131.242 87.3361 129.661 84.9401L118.04 67.328C116.286 64.6685 118.193 61.125 121.379 61.125H144.621C147.807 61.125 149.714 64.6685 147.96 67.328L136.339 84.9401Z" fill="white"/>
</g>
<g filter="url(#filter1_d_21_79)">
<rect x="12" y="8" width="142" height="59" rx="10" fill="white"/>
</g>
<path d="M37.1064 44.2197C34.1064 44.2197 32.6064 42.1133 32.6064 37.9004C32.6064 35.7148 33.0107 34.0508 33.8193 32.9082C34.6338 31.7598 35.8115 31.1855 37.3525 31.1855C40.2822 31.1855 41.7471 33.3271 41.7471 37.6104C41.7471 39.7432 41.3457 41.3779 40.543 42.5146C39.7461 43.6514 38.6006 44.2197 37.1064 44.2197ZM37.2295 33.3037C36.0283 33.3037 35.4277 34.8125 35.4277 37.8301C35.4277 40.6719 36.0166 42.0928 37.1943 42.0928C38.3428 42.0928 38.917 40.6279 38.917 37.6982C38.917 34.7686 38.3545 33.3037 37.2295 33.3037ZM49.666 31.1152V44H46.8975V34.2441C46.7451 34.3789 46.5635 34.5078 46.3525 34.6309C46.1475 34.748 45.9277 34.8564 45.6934 34.9561C45.459 35.0498 45.2158 35.1318 44.9639 35.2021C44.7119 35.2666 44.4629 35.3135 44.2168 35.3428V33.0049C44.9375 32.7939 45.6172 32.5244 46.2559 32.1963C46.8945 31.8682 47.4717 31.5078 47.9873 31.1152H49.666ZM58.7715 40.168H53.9639V38.2256H58.7715V40.168ZM75.7871 44H72.9834V36.459C72.9834 35.6445 73.0185 34.7451 73.0889 33.7607H73.0185C72.8721 34.5342 72.7402 35.0908 72.623 35.4307L69.6699 44H67.3496L64.3437 35.5186C64.2617 35.29 64.1299 34.7041 63.9482 33.7607H63.8691C63.9453 35.0029 63.9834 36.0928 63.9834 37.0303V44H61.4258V31.3965H65.583L68.1582 38.8672C68.3633 39.4648 68.5127 40.0654 68.6064 40.6689H68.6592C68.8174 39.9717 68.9844 39.3652 69.1602 38.8496L71.7353 31.3965L75.7871 31.3965V44ZM86.2109 44H78.6523V31.3965H85.9209V33.708H81.4912V36.5117H85.6133V38.8145H81.4912V41.6973H86.2109V44ZM85.4199 27.3887L82.6689 30.2275H80.665L82.9502 27.3887H85.4199ZM88.2324 44V31.3965H92.6973C97.1738 31.3965 99.4121 33.4443 99.4121 37.54C99.4121 39.5029 98.7998 41.0703 97.5752 42.2422C96.3564 43.4141 94.7305 44 92.6973 44H88.2324ZM91.0713 33.708V41.6973H92.4775C93.708 41.6973 94.6719 41.3281 95.3691 40.5898C96.0723 39.8516 96.4238 38.8467 96.4238 37.5752C96.4238 36.374 96.0752 35.4307 95.3779 34.7451C94.6865 34.0537 93.7139 33.708 92.46 33.708H91.0713ZM104.343 44H101.504V31.3965H104.343V44ZM116.252 43.5518C115.332 43.9971 114.131 44.2197 112.648 44.2197C110.715 44.2197 109.194 43.6514 108.087 42.5146C106.979 41.3779 106.426 39.8633 106.426 37.9707C106.426 35.9551 107.047 34.3203 108.289 33.0664C109.537 31.8125 111.154 31.1855 113.141 31.1855C114.371 31.1855 115.408 31.3408 116.252 31.6514V34.3848C115.408 33.8809 114.447 33.6289 113.369 33.6289C112.186 33.6289 111.23 34.001 110.504 34.7451C109.777 35.4893 109.414 36.4971 109.414 37.7686C109.414 38.9873 109.757 39.96 110.442 40.6865C111.128 41.4072 112.051 41.7676 113.211 41.7676C114.318 41.7676 115.332 41.498 116.252 40.959V43.5518ZM123.547 44.2197C121.742 44.2197 120.271 43.6338 119.135 42.4619C117.998 41.2842 117.43 39.752 117.43 37.8652C117.43 35.873 118.007 34.2617 119.161 33.0312C120.315 31.8008 121.845 31.1855 123.749 31.1855C125.548 31.1855 127.001 31.7744 128.108 32.9521C129.222 34.1299 129.778 35.6826 129.778 37.6104C129.778 39.5908 129.201 41.1875 128.047 42.4004C126.898 43.6133 125.398 44.2197 123.547 44.2197ZM123.67 33.6289C122.674 33.6289 121.883 34.0039 121.297 34.7539C120.711 35.498 120.418 36.4854 120.418 37.7158C120.418 38.9639 120.711 39.9512 121.297 40.6777C121.883 41.4043 122.65 41.7676 123.6 41.7676C124.578 41.7676 125.354 41.416 125.929 40.7129C126.503 40.0039 126.79 39.0225 126.79 37.7686C126.79 36.4619 126.512 35.4453 125.955 34.7187C125.398 33.9922 124.637 33.6289 123.67 33.6289ZM131.299 43.5166V40.7041C131.809 41.1318 132.362 41.4541 132.96 41.6709C133.558 41.8818 134.161 41.9873 134.77 41.9873C135.128 41.9873 135.438 41.9551 135.702 41.8906C135.972 41.8262 136.194 41.7383 136.37 41.627C136.552 41.5098 136.687 41.375 136.774 41.2227C136.862 41.0645 136.906 40.8945 136.906 40.7129C136.906 40.4668 136.836 40.2471 136.695 40.0537C136.555 39.8603 136.361 39.6816 136.115 39.5176C135.875 39.3535 135.588 39.1953 135.254 39.043C134.92 38.8906 134.56 38.7353 134.173 38.5771C133.188 38.167 132.453 37.666 131.967 37.0742C131.486 36.4824 131.246 35.7676 131.246 34.9297C131.246 34.2734 131.378 33.7109 131.642 33.2422C131.905 32.7676 132.263 32.3779 132.714 32.0732C133.171 31.7686 133.698 31.5459 134.296 31.4053C134.894 31.2588 135.526 31.1855 136.194 31.1855C136.851 31.1855 137.431 31.2266 137.935 31.3086C138.444 31.3848 138.913 31.5049 139.341 31.6689V34.2969C139.13 34.1504 138.898 34.0215 138.646 33.9102C138.4 33.7988 138.145 33.708 137.882 33.6377C137.618 33.5615 137.354 33.5059 137.091 33.4707C136.833 33.4355 136.587 33.418 136.353 33.418C136.03 33.418 135.737 33.4502 135.474 33.5146C135.21 33.5732 134.987 33.6582 134.806 33.7695C134.624 33.8809 134.483 34.0156 134.384 34.1738C134.284 34.3262 134.234 34.499 134.234 34.6924C134.234 34.9033 134.29 35.0937 134.401 35.2637C134.513 35.4277 134.671 35.5859 134.876 35.7383C135.081 35.8848 135.33 36.0312 135.623 36.1777C135.916 36.3184 136.247 36.4648 136.616 36.6172C137.12 36.8281 137.571 37.0537 137.97 37.2939C138.374 37.5283 138.72 37.7949 139.007 38.0937C139.294 38.3926 139.514 38.7353 139.666 39.1221C139.818 39.5029 139.895 39.9482 139.895 40.458C139.895 41.1611 139.76 41.7529 139.49 42.2334C139.227 42.708 138.866 43.0947 138.409 43.3936C137.952 43.6865 137.419 43.8975 136.81 44.0264C136.206 44.1553 135.567 44.2197 134.894 44.2197C134.202 44.2197 133.543 44.1611 132.916 44.0439C132.295 43.9268 131.756 43.751 131.299 43.5166Z" fill="#FF0000"/>
<defs>
<filter id="filter0_d_21_79" x="105.372" y="53.125" width="55.2554" height="49.6121" filterUnits="userSpaceOnUse" color-interpolation-filters="sRGB">
<feFlood flood-opacity="0" result="BackgroundImageFix"/>
<feColorMatrix in="SourceAlpha" type="matrix" values="0 0 0 0 0 0 0 0 0 0 0 0 0 0 0 0 0 0 127 0" result="hardAlpha"/>
<feOffset dy="4"/>
<feGaussianBlur stdDeviation="6"/>
<feComposite in2="hardAlpha" operator="out"/>
<feColorMatrix type="matrix" values="0 0 0 0 0 0 0 0 0 0 0 0 0 0 0 0 0 0 0.08 0"/>
<feBlend mode="normal" in2="BackgroundImageFix" result="effect1_dropShadow_21_79"/>
<feBlend mode="normal" in="SourceGraphic" in2="effect1_dropShadow_21_79" result="shape"/>
</filter>
<filter id="filter1_d_21_79" x="0" y="0" width="166" height="83" filterUnits="userSpaceOnUse" color-interpolation-filters="sRGB">
<feFlood flood-opacity="0" result="BackgroundImageFix"/>
<feColorMatrix in="SourceAlpha" type="matrix" values="0 0 0 0 0 0 0 0 0 0 0 0 0 0 0 0 0 0 127 0" result="hardAlpha"/>
<feOffset dy="4"/>
<feGaussianBlur stdDeviation="6"/>
<feComposite in2="hardAlpha" operator="out"/>
<feColorMatrix type="matrix" values="0 0 0 0 0 0 0 0 0 0 0 0 0 0 0 0 0 0 0.08 0"/>
<feBlend mode="normal" in2="BackgroundImageFix" result="effect1_dropShadow_21_79"/>
<feBlend mode="normal" in="SourceGraphic" in2="effect1_dropShadow_21_79" result="shape"/>
</filter>
</defs>
</svg>
