<svg width="174" height="103" viewBox="0 0 174 103" fill="none" xmlns="http://www.w3.org/2000/svg">
<g filter="url(#filter0_d_21_83)">
<path d="M36.3387 84.9401C34.7577 87.3361 31.2423 87.3361 29.6613 84.9401L18.0403 67.328C16.2856 64.6685 18.1929 61.125 21.379 61.125H44.621C47.8071 61.125 49.7144 64.6685 47.9597 67.328L36.3387 84.9401Z" fill="white"/>
</g>
<g filter="url(#filter1_d_21_83)">
<rect x="12" y="8" width="150" height="59" rx="10" fill="white"/>
</g>
<path d="M32.1064 44.2197C29.1064 44.2197 27.6064 42.1133 27.6064 37.9004C27.6064 35.7148 28.0107 34.0508 28.8193 32.9082C29.6338 31.7598 30.8115 31.1855 32.3525 31.1855C35.2822 31.1855 36.7471 33.3271 36.7471 37.6104C36.7471 39.7432 36.3457 41.3779 35.543 42.5146C34.7461 43.6514 33.6006 44.2197 32.1064 44.2197ZM32.2295 33.3037C31.0283 33.3037 30.4277 34.8125 30.4277 37.8301C30.4277 40.6719 31.0166 42.0928 32.1943 42.0928C33.3428 42.0928 33.917 40.6279 33.917 37.6982C33.917 34.7686 33.3545 33.3037 32.2295 33.3037ZM41.124 41.6973H46.4678V44H38.083V43.0508C38.083 42.4062 38.1914 41.8291 38.4082 41.3193C38.625 40.8037 38.8975 40.3437 39.2256 39.9395C39.5537 39.5293 39.9111 39.1689 40.2978 38.8584C40.6904 38.542 41.0625 38.2578 41.4141 38.0059C41.7832 37.7422 42.1055 37.4902 42.3809 37.25C42.6621 37.0098 42.8965 36.7725 43.084 36.5381C43.2773 36.2979 43.4209 36.0576 43.5146 35.8174C43.6084 35.5713 43.6553 35.3105 43.6553 35.0352C43.6553 34.4961 43.5029 34.0889 43.1982 33.8135C42.8936 33.5381 42.4277 33.4004 41.8008 33.4004C40.7168 33.4004 39.6797 33.8311 38.6895 34.6924V32.249C39.7852 31.54 41.0215 31.1855 42.3984 31.1855C43.0371 31.1855 43.6084 31.2705 44.1123 31.4404C44.6221 31.6045 45.0527 31.8418 45.4043 32.1523C45.7559 32.4629 46.0225 32.8408 46.2041 33.2861C46.3916 33.7256 46.4853 34.2178 46.4853 34.7627C46.4853 35.3428 46.3945 35.8584 46.2129 36.3096C46.0371 36.7607 45.7998 37.1709 45.501 37.54C45.208 37.9092 44.8682 38.249 44.4814 38.5596C44.0947 38.8643 43.6934 39.1602 43.2773 39.4473C42.9961 39.6465 42.7236 39.8457 42.46 40.0449C42.2021 40.2383 41.9736 40.4316 41.7744 40.625C41.5752 40.8125 41.417 40.9971 41.2998 41.1787C41.1826 41.3603 41.124 41.5332 41.124 41.6973ZM53.7715 40.168H48.9639V38.2256H53.7715V40.168ZM59.2646 39.6582V44H56.4258V31.3965H60.873C64.0488 31.3965 65.6367 32.7354 65.6367 35.4131C65.6367 36.6787 65.1797 37.7041 64.2656 38.4893C63.3574 39.2686 62.1416 39.6582 60.6182 39.6582H59.2646ZM59.2646 33.5762V37.5049H60.3809C61.8926 37.5049 62.6484 36.8428 62.6484 35.5186C62.6484 34.2236 61.8926 33.5762 60.3809 33.5762H59.2646ZM77.4932 44H74.3994L73.5029 41.1963H69.0205L68.1328 44H65.0566L69.6445 31.3965H73.0107L77.4932 44ZM72.8525 39.0166L71.499 34.7803C71.3994 34.4639 71.3291 34.0859 71.2881 33.6465H71.2178C71.1885 34.0156 71.1152 34.3818 70.998 34.7451L69.6269 39.0166H72.8525ZM89.6396 44H86.3789L84.4189 40.7568C84.2725 40.5107 84.1318 40.291 83.9971 40.0977C83.8623 39.9043 83.7246 39.7402 83.584 39.6055C83.4492 39.4648 83.3057 39.3594 83.1533 39.2891C83.0068 39.2129 82.8457 39.1748 82.6699 39.1748H81.9053V44H79.0664V31.3965H83.5664C86.625 31.3965 88.1543 32.5391 88.1543 34.8242C88.1543 35.2637 88.0869 35.6709 87.9521 36.0459C87.8174 36.415 87.6269 36.749 87.3809 37.0479C87.1348 37.3467 86.8359 37.6045 86.4844 37.8213C86.1387 38.0381 85.7519 38.208 85.3242 38.3311V38.3662C85.5117 38.4248 85.6934 38.5215 85.8691 38.6562C86.0449 38.7852 86.2148 38.9375 86.3789 39.1133C86.543 39.2891 86.6982 39.4795 86.8447 39.6846C86.9971 39.8838 87.1348 40.0801 87.2578 40.2734L89.6396 44ZM81.9053 33.5234V37.0303H83.1357C83.7451 37.0303 84.2344 36.8545 84.6035 36.5029C84.9785 36.1455 85.166 35.7031 85.166 35.1758C85.166 34.0742 84.5068 33.5234 83.1885 33.5234H81.9053ZM99.6855 43.5518C98.7656 43.9971 97.5644 44.2197 96.082 44.2197C94.1484 44.2197 92.6279 43.6514 91.5205 42.5146C90.4131 41.3779 89.8594 39.8633 89.8594 37.9707C89.8594 35.9551 90.4805 34.3203 91.7226 33.0664C92.9707 31.8125 94.5879 31.1855 96.5742 31.1855C97.8047 31.1855 98.8418 31.3408 99.6855 31.6514V34.3848C98.8418 33.8809 97.8809 33.6289 96.8027 33.6289C95.6191 33.6289 94.6641 34.001 93.9375 34.7451C93.2109 35.4893 92.8476 36.4971 92.8476 37.7686C92.8476 38.9873 93.1904 39.96 93.876 40.6865C94.5615 41.4072 95.4844 41.7676 96.6445 41.7676C97.7519 41.7676 98.7656 41.498 99.6855 40.959V43.5518ZM109.441 44H101.883V31.3965H109.151V33.708L104.722 33.708V36.5117L108.844 36.5117V38.8145L104.722 38.8145V41.6973H109.441V44ZM114.302 44H111.463V31.3965H114.302V44ZM127.749 44H124.488L122.528 40.7568C122.382 40.5107 122.241 40.291 122.106 40.0977C121.972 39.9043 121.834 39.7402 121.693 39.6055C121.559 39.4648 121.415 39.3594 121.263 39.2891C121.116 39.2129 120.955 39.1748 120.779 39.1748H120.015V44H117.176V31.3965H121.676C124.734 31.3965 126.264 32.5391 126.264 34.8242C126.264 35.2637 126.196 35.6709 126.062 36.0459C125.927 36.415 125.736 36.749 125.49 37.0479C125.244 37.3467 124.945 37.6045 124.594 37.8213C124.248 38.0381 123.861 38.208 123.434 38.3311V38.3662C123.621 38.4248 123.803 38.5215 123.979 38.6562C124.154 38.7852 124.324 38.9375 124.488 39.1133C124.652 39.2891 124.808 39.4795 124.954 39.6846C125.106 39.8838 125.244 40.0801 125.367 40.2734L127.749 44ZM120.015 33.5234V37.0303H121.245C121.854 37.0303 122.344 36.8545 122.713 36.5029C123.088 36.1455 123.275 35.7031 123.275 35.1758C123.275 34.0742 122.616 33.5234 121.298 33.5234H120.015ZM134.086 44.2197C132.281 44.2197 130.811 43.6338 129.674 42.4619C128.537 41.2842 127.969 39.752 127.969 37.8652C127.969 35.873 128.546 34.2617 129.7 33.0312C130.854 31.8008 132.384 31.1855 134.288 31.1855C136.087 31.1855 137.54 31.7744 138.647 32.9521C139.761 34.1299 140.317 35.6826 140.317 37.6104C140.317 39.5908 139.74 41.1875 138.586 42.4004C137.437 43.6133 135.937 44.2197 134.086 44.2197ZM134.209 33.6289C133.213 33.6289 132.422 34.0039 131.836 34.7539C131.25 35.498 130.957 36.4854 130.957 37.7158C130.957 38.9639 131.25 39.9512 131.836 40.6777C132.422 41.4043 133.189 41.7676 134.139 41.7676C135.117 41.7676 135.894 41.416 136.468 40.7129C137.042 40.0039 137.329 39.0225 137.329 37.7686C137.329 36.4619 137.051 35.4453 136.494 34.7187C135.937 33.9922 135.176 33.6289 134.209 33.6289ZM141.838 43.5166V40.7041C142.348 41.1318 142.901 41.4541 143.499 41.6709C144.097 41.8818 144.7 41.9873 145.31 41.9873C145.667 41.9873 145.978 41.9551 146.241 41.8906C146.511 41.8262 146.733 41.7383 146.909 41.627C147.091 41.5098 147.226 41.375 147.313 41.2227C147.401 41.0645 147.445 40.8945 147.445 40.7129C147.445 40.4668 147.375 40.2471 147.234 40.0537C147.094 39.8603 146.9 39.6816 146.654 39.5176C146.414 39.3535 146.127 39.1953 145.793 39.043C145.459 38.8906 145.099 38.7353 144.712 38.5771C143.728 38.167 142.992 37.666 142.506 37.0742C142.025 36.4824 141.785 35.7676 141.785 34.9297C141.785 34.2734 141.917 33.7109 142.181 33.2422C142.444 32.7676 142.802 32.3779 143.253 32.0732C143.71 31.7686 144.237 31.5459 144.835 31.4053C145.433 31.2588 146.065 31.1855 146.733 31.1855C147.39 31.1855 147.97 31.2266 148.474 31.3086C148.983 31.3848 149.452 31.5049 149.88 31.6689V34.2969C149.669 34.1504 149.437 34.0215 149.186 33.9102C148.939 33.7988 148.685 33.708 148.421 33.6377C148.157 33.5615 147.894 33.5059 147.63 33.4707C147.372 33.4355 147.126 33.418 146.892 33.418C146.569 33.418 146.276 33.4502 146.013 33.5146C145.749 33.5732 145.526 33.6582 145.345 33.7695C145.163 33.8809 145.022 34.0156 144.923 34.1738C144.823 34.3262 144.773 34.499 144.773 34.6924C144.773 34.9033 144.829 35.0937 144.94 35.2637C145.052 35.4277 145.21 35.5859 145.415 35.7383C145.62 35.8848 145.869 36.0312 146.162 36.1777C146.455 36.3184 146.786 36.4648 147.155 36.6172C147.659 36.8281 148.11 37.0537 148.509 37.2939C148.913 37.5283 149.259 37.7949 149.546 38.0937C149.833 38.3926 150.053 38.7353 150.205 39.1221C150.357 39.5029 150.434 39.9482 150.434 40.458C150.434 41.1611 150.299 41.7529 150.029 42.2334C149.766 42.708 149.405 43.0947 148.948 43.3936C148.491 43.6865 147.958 43.8975 147.349 44.0264C146.745 44.1553 146.106 44.2197 145.433 44.2197C144.741 44.2197 144.082 44.1611 143.455 44.0439C142.834 43.9268 142.295 43.751 141.838 43.5166Z" fill="#FF0000"/>
<defs>
<filter id="filter0_d_21_83" x="5.37231" y="53.125" width="55.2554" height="49.6121" filterUnits="userSpaceOnUse" color-interpolation-filters="sRGB">
<feFlood flood-opacity="0" result="BackgroundImageFix"/>
<feColorMatrix in="SourceAlpha" type="matrix" values="0 0 0 0 0 0 0 0 0 0 0 0 0 0 0 0 0 0 127 0" result="hardAlpha"/>
<feOffset dy="4"/>
<feGaussianBlur stdDeviation="6"/>
<feComposite in2="hardAlpha" operator="out"/>
<feColorMatrix type="matrix" values="0 0 0 0 0 0 0 0 0 0 0 0 0 0 0 0 0 0 0.08 0"/>
<feBlend mode="normal" in2="BackgroundImageFix" result="effect1_dropShadow_21_83"/>
<feBlend mode="normal" in="SourceGraphic" in2="effect1_dropShadow_21_83" result="shape"/>
</filter>
<filter id="filter1_d_21_83" x="0" y="0" width="174" height="83" filterUnits="userSpaceOnUse" color-interpolation-filters="sRGB">
<feFlood flood-opacity="0" result="BackgroundImageFix"/>
<feColorMatrix in="SourceAlpha" type="matrix" values="0 0 0 0 0 0 0 0 0 0 0 0 0 0 0 0 0 0 127 0" result="hardAlpha"/>
<feOffset dy="4"/>
<feGaussianBlur stdDeviation="6"/>
<feComposite in2="hardAlpha" operator="out"/>
<feColorMatrix type="matrix" values="0 0 0 0 0 0 0 0 0 0 0 0 0 0 0 0 0 0 0.08 0"/>
<feBlend mode="normal" in2="BackgroundImageFix" result="effect1_dropShadow_21_83"/>
<feBlend mode="normal" in="SourceGraphic" in2="effect1_dropShadow_21_83" result="shape"/>
</filter>
</defs>
</svg>
