<svg width="177" height="103" viewBox="0 0 177 103" fill="none" xmlns="http://www.w3.org/2000/svg">
<g filter="url(#filter0_d_21_87)">
<path d="M36.3387 84.9401C34.7577 87.3361 31.2423 87.3361 29.6613 84.9401L18.0403 67.328C16.2856 64.6685 18.1929 61.125 21.379 61.125H44.621C47.8071 61.125 49.7144 64.6685 47.9597 67.328L36.3387 84.9401Z" fill="white"/>
</g>
<g filter="url(#filter1_d_21_87)">
<rect x="12" y="8" width="153" height="59" rx="10" fill="white"/>
</g>
<path d="M32.1064 44.2197C29.1064 44.2197 27.6064 42.1133 27.6064 37.9004C27.6064 35.7148 28.0107 34.0508 28.8193 32.9082C29.6338 31.7598 30.8115 31.1855 32.3525 31.1855C35.2822 31.1855 36.7471 33.3271 36.7471 37.6104C36.7471 39.7432 36.3457 41.3779 35.543 42.5146C34.7461 43.6514 33.6006 44.2197 32.1064 44.2197ZM32.2295 33.3037C31.0283 33.3037 30.4277 34.8125 30.4277 37.8301C30.4277 40.6719 31.0166 42.0928 32.1943 42.0928C33.3428 42.0928 33.917 40.6279 33.917 37.6982C33.917 34.7686 33.3545 33.3037 32.2295 33.3037ZM38.3818 43.5869V41.1699C39.2256 41.7852 40.21 42.0928 41.335 42.0928C42.0439 42.0928 42.5947 41.9404 42.9873 41.6357C43.3857 41.3311 43.585 40.9062 43.585 40.3613C43.585 39.7988 43.3389 39.3652 42.8467 39.0605C42.3603 38.7559 41.6895 38.6035 40.834 38.6035H39.665V36.4766H40.7461C42.3867 36.4766 43.207 35.9316 43.207 34.8418C43.207 33.8164 42.5771 33.3037 41.3174 33.3037C40.4736 33.3037 39.6533 33.5762 38.8564 34.1211V31.8535C39.7412 31.4082 40.7725 31.1855 41.9502 31.1855C43.2393 31.1855 44.2412 31.4756 44.9561 32.0557C45.6768 32.6357 46.0371 33.3887 46.0371 34.3145C46.0371 35.9609 45.2021 36.9922 43.5322 37.4082V37.4521C44.4228 37.5635 45.126 37.8887 45.6416 38.4277C46.1572 38.9609 46.415 39.6172 46.415 40.3965C46.415 41.5742 45.9844 42.5059 45.123 43.1914C44.2617 43.877 43.0723 44.2197 41.5547 44.2197C40.2539 44.2197 39.1963 44.0088 38.3818 43.5869ZM53.7715 40.168H48.9639V38.2256H53.7715V40.168ZM65.4609 43.5518C64.541 43.9971 63.3398 44.2197 61.8574 44.2197C59.9238 44.2197 58.4033 43.6514 57.2959 42.5146C56.1885 41.3779 55.6348 39.8633 55.6348 37.9707C55.6348 35.9551 56.2559 34.3203 57.498 33.0664C58.7461 31.8125 60.3633 31.1855 62.3496 31.1855C63.5801 31.1855 64.6172 31.3408 65.4609 31.6514V34.3848C64.6172 33.8809 63.6562 33.6289 62.5781 33.6289C61.3945 33.6289 60.4394 34.001 59.7129 34.7451C58.9863 35.4893 58.623 36.4971 58.623 37.7686C58.623 38.9873 58.9658 39.96 59.6514 40.6865C60.3369 41.4072 61.2598 41.7676 62.4199 41.7676C63.5273 41.7676 64.541 41.498 65.4609 40.959V43.5518ZM72.7559 44.2197C70.9512 44.2197 69.4805 43.6338 68.3437 42.4619C67.207 41.2842 66.6387 39.752 66.6387 37.8652C66.6387 35.873 67.2158 34.2617 68.3701 33.0312C69.5244 31.8008 71.0537 31.1855 72.958 31.1855C74.7568 31.1855 76.21 31.7744 77.3174 32.9521C78.4307 34.1299 78.9873 35.6826 78.9873 37.6104C78.9873 39.5908 78.4102 41.1875 77.2559 42.4004C76.1074 43.6133 74.6074 44.2197 72.7559 44.2197ZM72.8789 33.6289C71.8828 33.6289 71.0918 34.0039 70.5059 34.7539C69.9199 35.498 69.6269 36.4854 69.6269 37.7158C69.6269 38.9639 69.9199 39.9512 70.5059 40.6777C71.0918 41.4043 71.8594 41.7676 72.8086 41.7676C73.7871 41.7676 74.5635 41.416 75.1377 40.7129C75.7119 40.0039 75.999 39.0225 75.999 37.7686C75.999 36.4619 75.7207 35.4453 75.1641 34.7187C74.6074 33.9922 73.8457 33.6289 72.8789 33.6289ZM92.4258 44H89.5605L84.3662 36.0811C84.0615 35.6182 83.8506 35.2695 83.7334 35.0352H83.6982C83.7451 35.4805 83.7685 36.1602 83.7685 37.0742V44H81.0879V31.3965H84.1465L89.1475 39.0693C89.376 39.415 89.5869 39.7578 89.7803 40.0977H89.8154C89.7685 39.8047 89.7451 39.2275 89.7451 38.3662V31.3965H92.4258V44ZM94.7285 43.5166V40.7041C95.2383 41.1318 95.792 41.4541 96.3896 41.6709C96.9873 41.8818 97.5908 41.9873 98.2002 41.9873C98.5576 41.9873 98.8682 41.9551 99.1318 41.8906C99.4014 41.8262 99.624 41.7383 99.7998 41.627C99.9814 41.5098 100.116 41.375 100.204 41.2227C100.292 41.0645 100.336 40.8945 100.336 40.7129C100.336 40.4668 100.266 40.2471 100.125 40.0537C99.9844 39.8603 99.791 39.6816 99.5449 39.5176C99.3047 39.3535 99.0176 39.1953 98.6836 39.043C98.3496 38.8906 97.9892 38.7353 97.6025 38.5771C96.6182 38.167 95.8828 37.666 95.3965 37.0742C94.916 36.4824 94.6758 35.7676 94.6758 34.9297C94.6758 34.2734 94.8076 33.7109 95.0713 33.2422C95.335 32.7676 95.6924 32.3779 96.1435 32.0732C96.6006 31.7686 97.1279 31.5459 97.7256 31.4053C98.3232 31.2588 98.956 31.1855 99.624 31.1855C100.28 31.1855 100.86 31.2266 101.364 31.3086C101.874 31.3848 102.343 31.5049 102.77 31.6689V34.2969C102.56 34.1504 102.328 34.0215 102.076 33.9102C101.83 33.7988 101.575 33.708 101.312 33.6377C101.048 33.5615 100.784 33.5059 100.52 33.4707C100.263 33.4355 100.017 33.418 99.7822 33.418C99.46 33.418 99.167 33.4502 98.9033 33.5146C98.6396 33.5732 98.417 33.6582 98.2353 33.7695C98.0537 33.8809 97.9131 34.0156 97.8135 34.1738C97.7139 34.3262 97.6641 34.499 97.6641 34.6924C97.6641 34.9033 97.7197 35.0937 97.831 35.2637C97.9424 35.4277 98.1006 35.5859 98.3057 35.7383C98.5107 35.8848 98.7598 36.0312 99.0527 36.1777C99.3457 36.3184 99.6767 36.4648 100.046 36.6172C100.55 36.8281 101.001 37.0537 101.399 37.2939C101.804 37.5283 102.149 37.7949 102.437 38.0937C102.724 38.3926 102.943 38.7353 103.096 39.1221C103.248 39.5029 103.324 39.9482 103.324 40.458C103.324 41.1611 103.189 41.7529 102.92 42.2334C102.656 42.708 102.296 43.0947 101.839 43.3936C101.382 43.6865 100.849 43.8975 100.239 44.0264C99.6357 44.1553 98.9971 44.2197 98.3232 44.2197C97.6318 44.2197 96.9726 44.1611 96.3457 44.0439C95.7246 43.9268 95.1855 43.751 94.7285 43.5166ZM115.673 38.542C115.673 42.3271 113.909 44.2197 110.382 44.2197C106.96 44.2197 105.249 42.3711 105.249 38.6738V31.3965H108.097V38.709C108.097 40.748 108.894 41.7676 110.487 41.7676C112.052 41.7676 112.834 40.7832 112.834 38.8145V31.3965L115.673 31.3965V38.542ZM125.93 44L118.424 44V31.3965H121.263V41.6973L125.93 41.6973V44ZM135.29 33.708H131.695V44H128.848V33.708H125.27V31.3965H135.29V33.708ZM146.804 44H143.71L142.813 41.1963H138.331L137.443 44H134.367L138.955 31.3965H142.321L146.804 44ZM142.163 39.0166L140.81 34.7803C140.71 34.4639 140.64 34.0859 140.599 33.6465H140.528C140.499 34.0156 140.426 34.3818 140.309 34.7451L138.937 39.0166H142.163ZM147.797 43.5166V40.7041C148.307 41.1318 148.86 41.4541 149.458 41.6709C150.056 41.8818 150.659 41.9873 151.269 41.9873C151.626 41.9873 151.937 41.9551 152.2 41.8906C152.47 41.8262 152.692 41.7383 152.868 41.627C153.05 41.5098 153.185 41.375 153.272 41.2227C153.36 41.0645 153.404 40.8945 153.404 40.7129C153.404 40.4668 153.334 40.2471 153.193 40.0537C153.053 39.8603 152.859 39.6816 152.613 39.5176C152.373 39.3535 152.086 39.1953 151.752 39.043C151.418 38.8906 151.058 38.7353 150.671 38.5771C149.687 38.167 148.951 37.666 148.465 37.0742C147.984 36.4824 147.744 35.7676 147.744 34.9297C147.744 34.2734 147.876 33.7109 148.14 33.2422C148.403 32.7676 148.761 32.3779 149.212 32.0732C149.669 31.7686 150.196 31.5459 150.794 31.4053C151.392 31.2588 152.024 31.1855 152.692 31.1855C153.349 31.1855 153.929 31.2266 154.433 31.3086C154.942 31.3848 155.411 31.5049 155.839 31.6689V34.2969C155.628 34.1504 155.396 34.0215 155.145 33.9102C154.898 33.7988 154.644 33.708 154.38 33.6377C154.116 33.5615 153.853 33.5059 153.589 33.4707C153.331 33.4355 153.085 33.418 152.851 33.418C152.528 33.418 152.235 33.4502 151.972 33.5146C151.708 33.5732 151.485 33.6582 151.304 33.7695C151.122 33.8809 150.981 34.0156 150.882 34.1738C150.782 34.3262 150.732 34.499 150.732 34.6924C150.732 34.9033 150.788 35.0937 150.899 35.2637C151.011 35.4277 151.169 35.5859 151.374 35.7383C151.579 35.8848 151.828 36.0312 152.121 36.1777C152.414 36.3184 152.745 36.4648 153.114 36.6172C153.618 36.8281 154.069 37.0537 154.468 37.2939C154.872 37.5283 155.218 37.7949 155.505 38.0937C155.792 38.3926 156.012 38.7353 156.164 39.1221C156.316 39.5029 156.393 39.9482 156.393 40.458C156.393 41.1611 156.258 41.7529 155.988 42.2334C155.725 42.708 155.364 43.0947 154.907 43.3936C154.45 43.6865 153.917 43.8975 153.308 44.0264C152.704 44.1553 152.065 44.2197 151.392 44.2197C150.7 44.2197 150.041 44.1611 149.414 44.0439C148.793 43.9268 148.254 43.751 147.797 43.5166Z" fill="#FF0000"/>
<defs>
<filter id="filter0_d_21_87" x="5.37231" y="53.125" width="55.2554" height="49.6121" filterUnits="userSpaceOnUse" color-interpolation-filters="sRGB">
<feFlood flood-opacity="0" result="BackgroundImageFix"/>
<feColorMatrix in="SourceAlpha" type="matrix" values="0 0 0 0 0 0 0 0 0 0 0 0 0 0 0 0 0 0 127 0" result="hardAlpha"/>
<feOffset dy="4"/>
<feGaussianBlur stdDeviation="6"/>
<feComposite in2="hardAlpha" operator="out"/>
<feColorMatrix type="matrix" values="0 0 0 0 0 0 0 0 0 0 0 0 0 0 0 0 0 0 0.08 0"/>
<feBlend mode="normal" in2="BackgroundImageFix" result="effect1_dropShadow_21_87"/>
<feBlend mode="normal" in="SourceGraphic" in2="effect1_dropShadow_21_87" result="shape"/>
</filter>
<filter id="filter1_d_21_87" x="0" y="0" width="177" height="83" filterUnits="userSpaceOnUse" color-interpolation-filters="sRGB">
<feFlood flood-opacity="0" result="BackgroundImageFix"/>
<feColorMatrix in="SourceAlpha" type="matrix" values="0 0 0 0 0 0 0 0 0 0 0 0 0 0 0 0 0 0 127 0" result="hardAlpha"/>
<feOffset dy="4"/>
<feGaussianBlur stdDeviation="6"/>
<feComposite in2="hardAlpha" operator="out"/>
<feColorMatrix type="matrix" values="0 0 0 0 0 0 0 0 0 0 0 0 0 0 0 0 0 0 0.08 0"/>
<feBlend mode="normal" in2="BackgroundImageFix" result="effect1_dropShadow_21_87"/>
<feBlend mode="normal" in="SourceGraphic" in2="effect1_dropShadow_21_87" result="shape"/>
</filter>
</defs>
</svg>
