<svg width="281" height="100" viewBox="0 0 281 100" fill="none" xmlns="http://www.w3.org/2000/svg">
<g filter="url(#filter0_d_21_104)">
<path d="M248.313 81.3036C246.732 83.6996 243.217 83.6996 241.636 81.3036L230.015 63.6915C228.26 61.0321 230.167 57.4885 233.354 57.4885H256.596C259.782 57.4885 261.689 61.0321 259.934 63.6915L248.313 81.3036Z" fill="white"/>
</g>
<g filter="url(#filter1_d_21_104)">
<rect x="12.9746" y="8.36353" width="256" height="59" rx="10" fill="white"/>
</g>
<path d="M59.5957 40.3831H55.7383V44.2405H54.127V40.3831H50.2695V38.7717H54.127V34.9045H55.7383V38.7717H59.5957V40.3831ZM69.0977 45.3635V31.3596H73.1406C78.3034 31.3596 80.8848 33.635 80.8848 38.1858C80.8848 40.3472 80.1686 42.0855 78.7363 43.4006C77.304 44.7092 75.3835 45.3635 72.9746 45.3635H69.0977ZM71.4121 33.3323V43.4006H73.2676C74.9017 43.4006 76.1712 42.9514 77.0762 42.053C77.9876 41.1545 78.4434 39.885 78.4434 38.2444C78.4434 34.9696 76.7474 33.3323 73.3555 33.3323H71.4121ZM91.3145 45.3635H83.4531V31.3596H91.002V33.3323H85.7773V37.2971H90.5918V39.26H85.7773V43.4006H91.3145V45.3635ZM107.33 45.3635H98.541V44.2795C98.541 43.8368 98.6029 43.4234 98.7266 43.0393C98.8503 42.6487 99.0163 42.2841 99.2246 41.9456C99.4329 41.6005 99.6771 41.2782 99.957 40.9788C100.237 40.6728 100.536 40.3798 100.855 40.0999C101.174 39.8134 101.5 39.54 101.832 39.2795C102.164 39.0126 102.49 38.7457 102.809 38.4788C103.108 38.2249 103.382 37.9775 103.629 37.7366C103.876 37.4892 104.088 37.2353 104.264 36.9749C104.439 36.7144 104.576 36.441 104.674 36.1545C104.771 35.8616 104.82 35.5458 104.82 35.2073C104.82 34.8362 104.762 34.5139 104.645 34.2405C104.534 33.9605 104.374 33.7294 104.166 33.5471C103.964 33.3583 103.723 33.2183 103.443 33.1272C103.163 33.0295 102.857 32.9807 102.525 32.9807C101.952 32.9807 101.37 33.1142 100.777 33.3811C100.185 33.648 99.6152 34.0484 99.0684 34.5823V32.4045C99.3548 32.1897 99.6445 32.0041 99.9375 31.8479C100.23 31.6851 100.533 31.5517 100.846 31.4475C101.158 31.3368 101.487 31.2555 101.832 31.2034C102.177 31.1513 102.545 31.1252 102.936 31.1252C103.567 31.1252 104.14 31.2099 104.654 31.3791C105.169 31.5419 105.608 31.7861 105.973 32.1116C106.337 32.4306 106.617 32.831 106.812 33.3127C107.014 33.7945 107.115 34.3479 107.115 34.9729C107.115 35.5393 107.044 36.0504 106.9 36.5061C106.764 36.9553 106.565 37.3752 106.305 37.7659C106.051 38.1565 105.742 38.5276 105.377 38.8791C105.012 39.2307 104.605 39.592 104.156 39.9631C103.779 40.2691 103.401 40.5686 103.023 40.8616C102.652 41.148 102.317 41.4312 102.018 41.7112C101.718 41.9846 101.474 42.2613 101.285 42.5413C101.103 42.8147 101.012 43.0914 101.012 43.3713V43.4202H107.33V45.3635ZM114.098 45.5979C112.639 45.5979 111.5 45.0022 110.68 43.8108C109.866 42.6194 109.459 40.8974 109.459 38.6448C109.459 36.1708 109.885 34.2991 110.738 33.0295C111.591 31.76 112.822 31.1252 114.43 31.1252C117.509 31.1252 119.049 33.5178 119.049 38.303C119.049 40.6728 118.613 42.4827 117.74 43.7327C116.874 44.9762 115.66 45.5979 114.098 45.5979ZM114.322 32.9319C112.623 32.9319 111.773 34.8036 111.773 38.5471C111.773 42.0497 112.607 43.801 114.273 43.801C115.914 43.801 116.734 42.0204 116.734 38.4592C116.734 34.7743 115.93 32.9319 114.322 32.9319ZM125.211 45.5979C123.753 45.5979 122.613 45.0022 121.793 43.8108C120.979 42.6194 120.572 40.8974 120.572 38.6448C120.572 36.1708 120.999 34.2991 121.852 33.0295C122.704 31.76 123.935 31.1252 125.543 31.1252C128.622 31.1252 130.162 33.5178 130.162 38.303C130.162 40.6728 129.726 42.4827 128.854 43.7327C127.988 44.9762 126.773 45.5979 125.211 45.5979ZM125.436 32.9319C123.736 32.9319 122.887 34.8036 122.887 38.5471C122.887 42.0497 123.72 43.801 125.387 43.801C127.027 43.801 127.848 42.0204 127.848 38.4592C127.848 34.7743 127.044 32.9319 125.436 32.9319ZM137.516 44.8069V42.4143C137.73 42.6096 137.984 42.7854 138.277 42.9416C138.577 43.0979 138.893 43.2314 139.225 43.342C139.557 43.4462 139.889 43.5276 140.221 43.5862C140.553 43.6448 140.859 43.6741 141.139 43.6741C142.115 43.6741 142.841 43.5113 143.316 43.1858C143.798 42.8603 144.039 42.3883 144.039 41.7698C144.039 41.4377 143.958 41.1513 143.795 40.9104C143.639 40.663 143.417 40.4384 143.131 40.2366C142.844 40.0347 142.506 39.8427 142.115 39.6604C141.731 39.4716 141.318 39.2763 140.875 39.0745C140.4 38.8206 139.957 38.5634 139.547 38.303C139.137 38.0426 138.779 37.7561 138.473 37.4436C138.173 37.1246 137.936 36.7665 137.76 36.3694C137.59 35.9722 137.506 35.5068 137.506 34.9729C137.506 34.3153 137.652 33.7457 137.945 33.2639C138.245 32.7756 138.635 32.3752 139.117 32.0627C139.605 31.7437 140.159 31.5094 140.777 31.3596C141.396 31.2034 142.027 31.1252 142.672 31.1252C144.137 31.1252 145.204 31.2913 145.875 31.6233V33.9182C145.081 33.3453 144.059 33.0588 142.809 33.0588C142.464 33.0588 142.118 33.0914 141.773 33.1565C141.435 33.2216 141.129 33.329 140.855 33.4788C140.589 33.6285 140.37 33.8206 140.201 34.0549C140.032 34.2893 139.947 34.5725 139.947 34.9045C139.947 35.217 140.012 35.4872 140.143 35.7151C140.273 35.943 140.462 36.1513 140.709 36.3401C140.963 36.5289 141.269 36.7144 141.627 36.8967C141.992 37.0725 142.411 37.2646 142.887 37.4729C143.375 37.7268 143.834 37.9937 144.264 38.2737C144.7 38.5536 145.081 38.8629 145.406 39.2014C145.738 39.54 145.999 39.9176 146.187 40.3342C146.383 40.7444 146.48 41.2131 146.48 41.7405C146.48 42.4501 146.337 43.0491 146.051 43.5374C145.764 44.0256 145.377 44.4228 144.889 44.7288C144.407 45.0347 143.85 45.2561 143.219 45.3928C142.587 45.5295 141.92 45.5979 141.217 45.5979C140.982 45.5979 140.693 45.5784 140.348 45.5393C140.009 45.5068 139.661 45.4547 139.303 45.3831C138.945 45.318 138.606 45.2366 138.287 45.1389C137.968 45.0413 137.711 44.9306 137.516 44.8069ZM156.92 45.3635H149.059V31.3596H156.607V33.3323H151.383V37.2971H156.197V39.26H151.383V43.4006H156.92V45.3635ZM170.23 45.3635H167.516L165.279 41.6135C165.077 41.2685 164.879 40.9755 164.684 40.7346C164.495 40.4872 164.299 40.2854 164.098 40.1291C163.902 39.9729 163.687 39.859 163.453 39.7874C163.219 39.7157 162.955 39.6799 162.662 39.6799H161.725V45.3635H159.41V31.3596H164.02C164.677 31.3596 165.283 31.4377 165.836 31.594C166.389 31.7502 166.871 31.9879 167.281 32.3069C167.691 32.6194 168.01 33.0133 168.238 33.4885C168.473 33.9573 168.59 34.5074 168.59 35.1389C168.59 35.6337 168.515 36.0894 168.365 36.5061C168.222 36.9163 168.014 37.2841 167.74 37.6096C167.473 37.9286 167.148 38.2021 166.764 38.4299C166.386 38.6578 165.96 38.8336 165.484 38.9573V38.9963C165.738 39.1396 165.96 39.2991 166.148 39.4749C166.337 39.6441 166.516 39.8199 166.686 40.0022C166.855 40.1845 167.021 40.3928 167.184 40.6272C167.353 40.8551 167.538 41.122 167.74 41.428L170.23 45.3635ZM161.725 33.2444V37.7952H163.658C164.016 37.7952 164.345 37.7398 164.645 37.6291C164.951 37.5185 165.214 37.359 165.436 37.1506C165.657 36.9423 165.829 36.6884 165.953 36.3889C166.077 36.0894 166.139 35.7541 166.139 35.3831C166.139 34.7125 165.927 34.1884 165.504 33.8108C165.081 33.4332 164.472 33.2444 163.678 33.2444H161.725ZM182.848 31.3596L177.818 45.3635H175.221L170.279 31.3596H172.818L176.275 41.9846C176.386 42.3232 176.471 42.717 176.529 43.1663H176.568C176.614 42.7952 176.708 42.3948 176.852 41.9651L180.387 31.3596H182.848ZM187.086 45.3635H184.693V31.3596H187.086V45.3635ZM200.309 44.7776C199.254 45.3245 197.942 45.5979 196.373 45.5979C194.342 45.5979 192.714 44.9566 191.49 43.6741C190.266 42.3915 189.654 40.7086 189.654 38.6252C189.654 36.3857 190.341 34.5758 191.715 33.1956C193.095 31.8153 194.837 31.1252 196.939 31.1252C198.294 31.1252 199.417 31.3173 200.309 31.7014V34.0061C199.365 33.4462 198.323 33.1663 197.184 33.1663C195.667 33.1663 194.436 33.6513 193.492 34.6213C192.555 35.5914 192.086 36.887 192.086 38.5081C192.086 40.051 192.525 41.2815 193.404 42.1995C194.283 43.1109 195.439 43.5666 196.871 43.5666C198.193 43.5666 199.339 43.2541 200.309 42.6291V44.7776ZM198.424 47.7854C198.424 49.0484 197.486 49.6799 195.611 49.6799C195.305 49.6799 195.042 49.6702 194.82 49.6506V48.5666C195.107 48.6057 195.338 48.6252 195.514 48.6252C196.38 48.6252 196.812 48.3583 196.812 47.8245C196.812 47.3427 196.419 47.1018 195.631 47.1018C195.566 47.1018 195.439 47.1148 195.25 47.1409V45.3635H196.578V46.2815C197.145 46.2815 197.594 46.4117 197.926 46.6721C198.258 46.939 198.424 47.3101 198.424 47.7854ZM208.229 45.5979C206.21 45.5979 204.592 44.9436 203.375 43.635C202.164 42.3264 201.559 40.6239 201.559 38.5276C201.559 36.275 202.177 34.4781 203.414 33.137C204.651 31.7958 206.331 31.1252 208.453 31.1252C210.419 31.1252 212.001 31.7763 213.199 33.0784C214.404 34.3805 215.006 36.0829 215.006 38.1858C215.006 40.4709 214.391 42.2776 213.16 43.6057C211.93 44.9338 210.286 45.5979 208.229 45.5979ZM208.336 33.1663C207.053 33.1663 206.008 33.6448 205.201 34.6018C204.4 35.5588 204 36.8186 204 38.3811C204 39.9371 204.391 41.1903 205.172 42.1409C205.953 43.0914 206.975 43.5666 208.238 43.5666C209.579 43.5666 210.637 43.1142 211.412 42.2092C212.187 41.3043 212.574 40.038 212.574 38.4104C212.574 36.7372 212.197 35.4449 211.441 34.5334C210.693 33.622 209.658 33.1663 208.336 33.1663ZM216.93 44.8069V42.4143C217.145 42.6096 217.398 42.7854 217.691 42.9416C217.991 43.0979 218.307 43.2314 218.639 43.342C218.971 43.4462 219.303 43.5276 219.635 43.5862C219.967 43.6448 220.273 43.6741 220.553 43.6741C221.529 43.6741 222.255 43.5113 222.73 43.1858C223.212 42.8603 223.453 42.3883 223.453 41.7698C223.453 41.4377 223.372 41.1513 223.209 40.9104C223.053 40.663 222.831 40.4384 222.545 40.2366C222.258 40.0347 221.92 39.8427 221.529 39.6604C221.145 39.4716 220.732 39.2763 220.289 39.0745C219.814 38.8206 219.371 38.5634 218.961 38.303C218.551 38.0426 218.193 37.7561 217.887 37.4436C217.587 37.1246 217.35 36.7665 217.174 36.3694C217.005 35.9722 216.92 35.5068 216.92 34.9729C216.92 34.3153 217.066 33.7457 217.359 33.2639C217.659 32.7756 218.049 32.3752 218.531 32.0627C219.02 31.7437 219.573 31.5094 220.191 31.3596C220.81 31.2034 221.441 31.1252 222.086 31.1252C223.551 31.1252 224.618 31.2913 225.289 31.6233V33.9182C224.495 33.3453 223.473 33.0588 222.223 33.0588C221.878 33.0588 221.533 33.0914 221.187 33.1565C220.849 33.2216 220.543 33.329 220.27 33.4788C220.003 33.6285 219.784 33.8206 219.615 34.0549C219.446 34.2893 219.361 34.5725 219.361 34.9045C219.361 35.217 219.426 35.4872 219.557 35.7151C219.687 35.943 219.876 36.1513 220.123 36.3401C220.377 36.5289 220.683 36.7144 221.041 36.8967C221.406 37.0725 221.826 37.2646 222.301 37.4729C222.789 37.7268 223.248 37.9937 223.678 38.2737C224.114 38.5536 224.495 38.8629 224.82 39.2014C225.152 39.54 225.413 39.9176 225.602 40.3342C225.797 40.7444 225.895 41.2131 225.895 41.7405C225.895 42.4501 225.751 43.0491 225.465 43.5374C225.178 44.0256 224.791 44.4228 224.303 44.7288C223.821 45.0347 223.264 45.2561 222.633 45.3928C222.001 45.5295 221.334 45.5979 220.631 45.5979C220.396 45.5979 220.107 45.5784 219.762 45.5393C219.423 45.5068 219.075 45.4547 218.717 45.3831C218.359 45.318 218.02 45.2366 217.701 45.1389C217.382 45.0413 217.125 44.9306 216.93 44.8069Z" fill="#FF0000"/>
<defs>
<filter id="filter0_d_21_104" x="217.347" y="49.4885" width="55.2554" height="49.6121" filterUnits="userSpaceOnUse" color-interpolation-filters="sRGB">
<feFlood flood-opacity="0" result="BackgroundImageFix"/>
<feColorMatrix in="SourceAlpha" type="matrix" values="0 0 0 0 0 0 0 0 0 0 0 0 0 0 0 0 0 0 127 0" result="hardAlpha"/>
<feOffset dy="4"/>
<feGaussianBlur stdDeviation="6"/>
<feComposite in2="hardAlpha" operator="out"/>
<feColorMatrix type="matrix" values="0 0 0 0 0 0 0 0 0 0 0 0 0 0 0 0 0 0 0.08 0"/>
<feBlend mode="normal" in2="BackgroundImageFix" result="effect1_dropShadow_21_104"/>
<feBlend mode="normal" in="SourceGraphic" in2="effect1_dropShadow_21_104" result="shape"/>
</filter>
<filter id="filter1_d_21_104" x="0.974609" y="0.363525" width="280" height="83" filterUnits="userSpaceOnUse" color-interpolation-filters="sRGB">
<feFlood flood-opacity="0" result="BackgroundImageFix"/>
<feColorMatrix in="SourceAlpha" type="matrix" values="0 0 0 0 0 0 0 0 0 0 0 0 0 0 0 0 0 0 127 0" result="hardAlpha"/>
<feOffset dy="4"/>
<feGaussianBlur stdDeviation="6"/>
<feComposite in2="hardAlpha" operator="out"/>
<feColorMatrix type="matrix" values="0 0 0 0 0 0 0 0 0 0 0 0 0 0 0 0 0 0 0.08 0"/>
<feBlend mode="normal" in2="BackgroundImageFix" result="effect1_dropShadow_21_104"/>
<feBlend mode="normal" in="SourceGraphic" in2="effect1_dropShadow_21_104" result="shape"/>
</filter>
</defs>
</svg>
